<?xml version="1.0" encoding="UTF-8"?>
<svg id="Capa_1" data-name="Capa 1" xmlns="http://www.w3.org/2000/svg" viewBox="0 0 478.53 68.33">
  <defs>
    <style>
      .cls-1 {
        fill: #fff;
        stroke-width: 0px;
      }
    </style>
  </defs>
  <path class="cls-1" d="m29.7,3.6v4.38h-.21c-2.56-2.97-6.52-4.49-11.06-4.49-8.72,0-14.51,5.84-14.51,14.35s5.79,14.35,14.51,14.35c4.49,0,8.45-1.46,11.06-4.49h.21v4.38c-2.77,2.29-6.73,3.6-11.43,3.6C7.41,35.7,0,28.29,0,17.85S7.41,0,18.27,0C23.17,0,26.93,1.2,29.7,3.6"/>
  <polygon class="cls-1" points="57.93 19.42 40.44 19.42 40.44 31.68 61.68 31.68 61.68 35.18 36.58 35.18 36.58 .52 61.68 .52 61.68 4.02 40.44 4.02 40.44 15.92 57.93 15.92 57.93 19.42"/>
  <polygon class="cls-1" points="93.88 35.18 72.38 4.38 72.27 4.38 72.27 35.18 68.52 35.18 68.52 .52 74 .52 94.77 30.06 94.87 30.06 94.87 .52 98.63 .52 98.63 35.18 93.88 35.18"/>
  <polygon class="cls-1" points="119.92 35.18 116.06 35.18 116.06 4.02 104.16 4.02 104.16 .52 131.72 .52 131.72 4.02 119.92 4.02 119.92 35.18"/>
  <path class="cls-1" d="m141.1,35.18h-3.86V.52h15.08c7.99,0,12.11,3.55,12.11,10.49,0,5.74-2.87,9.18-8.51,10.18l9.5,13.99h-4.59l-8.92-13.72h-10.8v13.72Zm11.06-17.22c5.59,0,8.35-2.35,8.35-6.94s-2.76-7-8.35-7h-11.06v13.93h11.06Z"/>
  <path class="cls-1" d="m248.35.52c7.99,0,12.11,3.65,12.11,10.7s-4.12,10.65-12.11,10.65h-10.96v13.31h-3.86V.52h14.82Zm-.16,17.85c5.58,0,8.35-2.4,8.35-7.15s-2.77-7.2-8.35-7.2h-10.8v14.35h10.8Z"/>
  <polygon class="cls-1" points="276.53 35.18 276.53 19.78 261.65 .52 266.4 .52 278.61 16.55 290.62 .52 295.26 .52 280.44 19.78 280.44 35.18 276.53 35.18"/>
  <polygon class="cls-1" points="336.33 35.18 336.33 4.38 336.23 4.38 321.56 35.18 318.33 35.18 303.87 4.7 303.77 4.7 303.77 35.18 300 35.18 300 .52 305.9 .52 319.94 30.17 320.05 30.17 334.24 .52 340.2 .52 340.2 35.18 336.33 35.18"/>
  <polygon class="cls-1" points="368.99 19.42 351.5 19.42 351.5 31.68 372.75 31.68 372.75 35.18 347.64 35.18 347.64 .52 372.75 .52 372.75 4.02 351.5 4.02 351.5 15.92 368.99 15.92 368.99 19.42"/>
  <path class="cls-1" d="m404.14,20.29c0,6.52-3.05,9.83-9.06,9.83s-9.01-3.31-9.01-9.83V.65h-5.88v19.84c0,9.79,5.27,15.18,14.84,15.18s14.89-5.39,14.89-15.18V.65h-5.78v19.65Z"/>
  <path class="cls-1" d="m437.79,17.36c2.12-1.54,3.2-3.89,3.2-7.02,0-3.62-1.58-9.69-12.17-9.69h-14.11v34.53h15.32c7.82,0,12.12-3.53,12.12-9.93,0-3.71-1.5-6.4-4.36-7.89m-17.2-2.43V6.19h8.18c5.72,0,6.38,2.48,6.38,4.34s-.68,4.39-6.58,4.39h-7.98Zm15.63,10.18c0,2.11-.71,4.54-6.28,4.54h-9.35v-9.17h9.15c5.81,0,6.48,2.65,6.48,4.64"/>
  <path class="cls-1" d="m462.51.65h-4.86l-16.01,34.53h6.32l3.3-7.23h17.52l3.3,7.23h6.46L462.51.65Zm3.76,21.76h-12.52l6.28-13.78,6.24,13.78Z"/>
  <path class="cls-1" d="m187.31,32.2c-8.3,0-14.04-5.9-14.04-14.35s5.74-14.36,14.04-14.36c2.97,0,5.61.78,7.78,2.14,1.01-.84,2.1-1.57,3.29-2.14C195.4,1.3,191.64,0,187.31,0,176.82,0,169.35,7.41,169.35,17.85s7.47,17.85,17.96,17.85c4.33,0,8.08-1.3,11.07-3.49-1.19-.57-2.28-1.3-3.29-2.14-2.18,1.36-4.81,2.14-7.78,2.14"/>
  <path class="cls-1" d="m189.32,17.85c0,4.93,2.27,9.27,5.78,12.21,3.9-2.44,6.31-6.79,6.31-12.21s-2.41-9.78-6.31-12.21c-3.5,2.94-5.78,7.29-5.78,12.21"/>
  <path class="cls-1" d="m205.32,1.85c-2.49,0-4.83.62-6.94,1.64,4.29,3.15,6.94,8.2,6.94,14.36s-2.64,11.21-6.94,14.36c2.1,1.02,4.44,1.64,6.94,1.64,8.84,0,16-7.17,16-16s-7.16-16-16-16"/>
  <g>
    <path class="cls-1" d="m.47,54.37h1.53v13.75H.47v-13.75Z"/>
    <path class="cls-1" d="m19.76,68.12v-12.22h-.04l-5.82,12.22h-1.28l-5.73-12.09h-.04v12.09h-1.49v-13.75h2.34l5.57,11.76h.04l5.63-11.76h2.36v13.75h-1.53Z"/>
    <path class="cls-1" d="m30.53,54.37c3.17,0,4.8,1.45,4.8,4.24s-1.64,4.22-4.8,4.22h-4.35v5.28h-1.53v-13.75h5.88Zm-.06,7.08c2.21,0,3.31-.95,3.31-2.84s-1.1-2.86-3.31-2.86h-4.29v5.69h4.29Z"/>
    <path class="cls-1" d="m49.02,62.34c0,3.91-2.05,5.98-5.86,5.98s-5.84-2.07-5.84-5.98v-7.97h1.53v7.89c0,3.04,1.53,4.68,4.33,4.68s4.35-1.64,4.35-4.68v-7.89h1.49v7.97Z"/>
    <path class="cls-1" d="m52.04,68.12v-13.75h1.53v12.36h8.16v1.39h-9.69Z"/>
    <path class="cls-1" d="m72.75,55.39v1.72h-.08c-.91-.99-2.51-1.55-4.39-1.55-2.09,0-3.52,1.03-3.52,2.59,0,1.35.85,1.95,3.66,2.24,3.75.37,5.03,1.51,5.03,3.95s-1.95,4-5.16,4c-2.24,0-4.06-.52-5.2-1.49v-1.7h.08c1.22,1.18,2.98,1.8,5.11,1.8,2.28,0,3.62-.97,3.62-2.59,0-1.47-.91-2.13-3.85-2.44-3.64-.37-4.84-1.43-4.84-3.71,0-2.44,2.01-4.04,5.07-4.04,1.88,0,3.56.45,4.45,1.22Z"/>
    <path class="cls-1" d="m85.44,65.03h-8.1l-1.41,3.09h-1.61l6.38-13.75h1.45l6.38,13.75h-1.68l-1.41-3.09Zm-4.06-8.88l-3.42,7.49h6.85l-3.39-7.49h-.04Z"/>
    <path class="cls-1" d="m100.66,68.12l-8.53-12.22h-.04v12.22h-1.49v-13.75h2.17l8.24,11.72h.04v-11.72h1.49v13.75h-1.88Z"/>
    <path class="cls-1" d="m111.18,54.37c4.55,0,7.29,2.59,7.29,6.85s-2.73,6.89-7.29,6.89h-5.28v-13.75h5.28Zm-.06,12.36c3.64,0,5.8-2.05,5.8-5.51s-2.15-5.47-5.8-5.47h-3.68v10.97h3.68Z"/>
    <path class="cls-1" d="m134.31,61.24c0,4.14-2.96,7.08-7.14,7.08s-7.12-2.94-7.12-7.08,2.96-7.08,7.12-7.08,7.14,2.94,7.14,7.08Zm-12.71,0c0,3.35,2.28,5.69,5.57,5.69s5.59-2.34,5.59-5.69-2.3-5.69-5.59-5.69-5.57,2.34-5.57,5.69Z"/>
    <path class="cls-1" d="m149.82,62.01h-6.96v6.11h-1.53v-13.75h9.98v1.39h-8.45v4.87h6.96v1.39Z"/>
    <path class="cls-1" d="m164.96,62.34c0,3.91-2.05,5.98-5.86,5.98s-5.84-2.07-5.84-5.98v-7.97h1.53v7.89c0,3.04,1.53,4.68,4.33,4.68s4.35-1.64,4.35-4.68v-7.89h1.49v7.97Z"/>
    <path class="cls-1" d="m173.07,68.12h-1.53v-12.36h-4.72v-1.39h10.93v1.39h-4.68v12.36Z"/>
    <path class="cls-1" d="m191.31,62.34c0,3.91-2.05,5.98-5.86,5.98s-5.84-2.07-5.84-5.98v-7.97h1.53v7.89c0,3.04,1.53,4.68,4.33,4.68s4.35-1.64,4.35-4.68v-7.89h1.49v7.97Z"/>
    <path class="cls-1" d="m195.87,68.12h-1.53v-13.75h5.98c3.17,0,4.8,1.41,4.8,4.16,0,2.28-1.14,3.64-3.37,4.04l3.77,5.55h-1.82l-3.54-5.45h-4.29v5.45Zm4.39-6.83c2.22,0,3.31-.93,3.31-2.75s-1.1-2.77-3.31-2.77h-4.39v5.53h4.39Z"/>
    <path class="cls-1" d="m221.32,61.24c0,4.14-2.96,7.08-7.14,7.08s-7.12-2.94-7.12-7.08,2.96-7.08,7.12-7.08,7.14,2.94,7.14,7.08Zm-12.71,0c0,3.35,2.28,5.69,5.57,5.69s5.59-2.34,5.59-5.69-2.3-5.69-5.59-5.69-5.57,2.34-5.57,5.69Z"/>
  </g>
</svg>